<?xml version="1.0" encoding="iso-8859-1"?>
<!-- Generator: Adobe Illustrator 19.0.0, SVG Export Plug-In . SVG Version: 6.00 Build 0)  -->
<svg xmlns="http://www.w3.org/2000/svg" xmlns:xlink="http://www.w3.org/1999/xlink" version="1.1" id="Capa_1" x="0px" y="0px" viewBox="0 0 496 496" style="enable-background:new 0 0 496 496;" xml:space="preserve" width="512px" height="512px">
<g>
	<g>
		<g>
			<path d="M32,384h208V48H32V384z M48,64h176v304H48V64z" fill="#333333"/>
			<path d="M184,192c-13.232,0-24,10.768-24,24s10.768,24,24,24s24-10.768,24-24S197.232,192,184,192z M184,224     c-4.416,0-8-3.584-8-8s3.584-8,8-8s8,3.584,8,8S188.416,224,184,224z" fill="#333333"/>
			<path d="M272,0h-8H0v416v8v72h496v-72v-8V144V96V0H272z M16,16h240v400H16V16z M480,448h-16v16h16v16H16v-16h432v-16H16v-16h464     V448z M480,416h-16V312h16V416z M480,296h-40c-4.416,0-8-3.584-8-8c0-4.416,3.584-8,8-8h40V296z M480,144v120h-16V104     c0-13.232-10.768-24-24-24h-64c-13.232,0-24,10.768-24,24v16h-16V96c0-17.648,14.352-32,32-32h80c17.648,0,32,14.352,32,32V144z      M376,136c4.416,0,8,3.584,8,8v8h-80v-8c0-4.416,3.584-8,8-8H376z M480,60.32C471.496,52.688,460.296,48,448,48h-80     c-26.472,0-48,21.528-48,48v24h-8c-13.232,0-24,10.768-24,24v24h112v-24c0-13.232-10.768-24-24-24h-8v-16c0-4.416,3.584-8,8-8h64     c4.416,0,8,3.584,8,8v160h-8c-13.232,0-24,10.768-24,24s10.768,24,24,24h8v104H272V16h208V60.32z" fill="#333333"/>
			<rect x="336" y="190.432" width="16" height="24" fill="#333333"/>
			<rect x="336" y="230.432" width="16" height="24" fill="#333333"/>
			<rect x="362.012" y="186.393" transform="matrix(0.5001 0.866 -0.866 0.5001 355.3132 -226.7056)" width="24.001" height="16" fill="#333333"/>
			<rect x="386.028" y="217.06" transform="matrix(-0.8661 0.4999 -0.4999 -0.8661 849.7973 230.4748)" width="16" height="24" fill="#333333"/>
			<rect x="306.003" y="182.371" transform="matrix(0.8661 0.4999 -0.4999 0.8661 139.2148 -130.9397)" width="16" height="24" fill="#333333"/>
			<rect x="285.999" y="217.01" transform="matrix(0.8661 0.4999 -0.4999 0.8661 153.8509 -116.3008)" width="16" height="24" fill="#333333"/>
		</g>
	</g>
</g>
<g>
</g>
<g>
</g>
<g>
</g>
<g>
</g>
<g>
</g>
<g>
</g>
<g>
</g>
<g>
</g>
<g>
</g>
<g>
</g>
<g>
</g>
<g>
</g>
<g>
</g>
<g>
</g>
<g>
</g>
</svg>
