<?xml version="1.0" encoding="iso-8859-1"?>
<!-- Generator: Adobe Illustrator 19.0.0, SVG Export Plug-In . SVG Version: 6.00 Build 0)  -->
<svg xmlns="http://www.w3.org/2000/svg" xmlns:xlink="http://www.w3.org/1999/xlink" version="1.1" id="Capa_1" x="0px" y="0px" viewBox="0 0 512 512" style="enable-background:new 0 0 512 512;" xml:space="preserve" width="512px" height="512px">
<g>
	<g>
		<path d="M0,0v512h512V0H0z M135,482h-30v-45h30V482z M347,482H165v-45h182V482z M195,407v-30h122v30H195z M407,482h-30v-45h30V482    z M407,407h-60v-60H165v60h-60v-90h302V407z M113.676,287l37.071-78.467C155.33,198.833,169.273,190,180,190h152    c10.728,0,24.67,8.833,29.253,18.533L398.324,287H113.676z M482,482h-45V298.635l-48.622-102.917    C378.915,175.689,354.15,160,332,160H180c-22.151,0-46.915,15.689-56.377,35.718L75,298.635V482H30V130h452V482z M482,100H30V30    h452V100z" fill="#4d4d4d"/>
	</g>
</g>
<g>
</g>
<g>
</g>
<g>
</g>
<g>
</g>
<g>
</g>
<g>
</g>
<g>
</g>
<g>
</g>
<g>
</g>
<g>
</g>
<g>
</g>
<g>
</g>
<g>
</g>
<g>
</g>
<g>
</g>
</svg>
